<svg xmlns="http://www.w3.org/2000/svg" viewBox="0 0 180 180">
  <defs>
    <linearGradient id="bg" x1="0%" y1="0%" x2="100%" y2="100%">
      <stop offset="0%" style="stop-color:#6366F1"/>
      <stop offset="100%" style="stop-color:#4F46E5"/>
    </linearGradient>
  </defs>
  <rect width="180" height="180" rx="40" fill="url(#bg)"/>
  <g transform="translate(5, 5) scale(0.85)" fill="white">
    <path d="M90.31,122.13c-5.06-1.99-10.67-10.64-12.41-16.03,4.46-1.25,12.55-6.5,10.57-11.64-3.4,3.54-6.12,7.18-11.09,8.02,1.03-2.21,3.6-10.4.76-10.92-2.02-.37-.89,5.27-3.71,8.63-2.54-2.88-5.15-4.2-9.05-3.72l2.13-7.77c-4.47,2.31-5.17,7.1-5.37,11.61l3.17-.3c-3.54,9.15-11.99,16.34-21.86,12.51-3.06-1.19-6.08-4.38-7.54-8.4-1.36-3.74-.91-7.61-.54-11.78-3.41,5.45-3.79,12.53-.58,18.25,3.83,6.8,11.59,10.02,19.25,8.36,8.35-1.81,14.32-7.88,17.96-15.7,6.19,2.63-4.29,11.99-6.52,14.17.52,10.07-1.75,24.06-12.53,27.85-5.67,2-11.27,1.41-15.79-2.09-3.92-3.02-8.23-11.63-5.28-13.9,2.19-1.69,3.03,1.06,6.16-.86.67-.41,2.19-.62,2.97-.31,2.51.98.26,5.22,3.92,6.28,1.48.43,3.48-.35,4.27-1.88,1.58-3.07,1.42-6.04.87-9.84-4.34.76-7.62-2.23-11.3-2.81-6-.93-11.6-2.37-15.52-7-3.99-4.71-5.71-10.53-4.67-17.01,1.8-11.23,13.31-18.31,14.03-15.77.65,2.3-2.95,3.59-4.83,10.19-1.23,4.33-1.26,8.99,1.39,12.94.02-9.13,4.51-17.29,12.31-21.19.4-.2,1.26-.2,1.61-.13.44.08.6,1.64.28,2.07-4.66,6.21-7.9,15.72-2.26,22.7,2.08-.43,4.1-1.93,5.56-3.7-1.93-9.83,1.99-18.53,5.39-27.15,1.4-3.54-.87-8.15,3.99-11.1,2.09-1.27,4.36-4.49,5.22-6.89l-2.7-.94c.54-5.56,4.15-10.47,9.42-12.77,10.81-4.73,25.41-1.97,30.98,9.67,6.61-2.81,13.6-3.05,20.08-.24.33.14,1.17.61,1.05.89l-.65,1.53c3.7,1.4,7.97,2.98,11.15,5.69-.11.8-.9,1.47-1.89,2.31,7.24,3.73,15.15,4.82,22.21,9.03,4.49,2.68,8.59,6.44,10.38,11.17l-1.38,1.16c-.87.73,11.71,9.35,9.79,25.61-.18,1.49.42,4.19,1.44,4.95,5.87,4.31,2.05,6.42,4.35,11.59-5.92-.91-7.16-5.42-7.82-10.66l-.93-7.34c-.39-3.08-.22-6.23-1.68-9.12.33,6.07-.35,11.96-1.87,18.01-3.32,13.26,4.19,14.84,2.92,32.4-.2,2.71-2.57,4.95-5.29,5.03-4.35.13-12.27.91-14.39-2.02-2.49-3.44,1.64-4.61,1.07-13.43-.2-3.09-.67-5.99-2.73-8.37-4.25-4.91-6.54-10.62-7.23-17.2-1.5,2.06-1.51,4.77-1,7.06l2.11,9.37c-4.95.75-8.54-.93-12.79-2.33.31,1.17.56,2.79-.15,3.41-2.86-.33-5.9-1.46-8.48-2.73.27-6.02,2.01-13.54-2.77-19.45.8,6.22,1.07,11.69-.53,17.54-.36,1.33-.3,3.31-.06,4.71,1.12,6.4,2.05,12.52,2.35,18.97.13,2.84-1.39,5.28-4.42,5.5-2.84.2-13.23,1.12-14.29-1.43-1.83-4.4,2.41-7.21,2.38-10.44-.06-5.86-1.25-11.3-3.39-16.64l-6.22-15.53c-1.18,3.12-.37,5.46,0,9.41Z"/>
    <path d="M89.37,152.28c-4.26,1.45-15.5,2.35-17.12-.68-1.78-3.33,2.52-6.36,2.91-11.03,1.08-12.8,3.14-12.05,4.69-23.56,3.03,3.51,5.87,6.6,10.1,8.59,1.27,2.58,2.53,6.19,3.24,9.18-1.94,4.12-2.89,8.56-2.24,12.97.18,1.22-.47,4.16-1.58,4.53Z"/>
    <path d="M142.69,148.06c-.15,2.2-1.83,4.1-3.86,4.16-3.12.1-11.9.79-13.23-1.61-1.97-3.57,5.05-8.11,2.42-17.53,4.29,1.17,7.82,1.76,11.83,1.24l3.55,3.65-.7,10.08Z"/>
  </g>
</svg>
